# xmcd
#
# Track frame offsets:
#	150
#	17400
#	34725
#	50925
#	67800
#	89175
#	107025
#	119850
#	137175
#	154275
#	168075
#	183600
#	203775
#	215850
#	228525
#	240300
#	254475
#	270075
#	284850
#
# Disc length: 4042 seconds
#
# Revision: 1
# Processed by: cddbd v1.5.2PL0 Copyright (c) Steve Scherf et al.
# Submitted via: audiograbber 1.83.01
#
DISCID=270fc813
DTITLE=Blanik - Pohodove ceske pisnicky 9
DYEAR=2008
DGENRE=Country
TTITLE0=Michal Tucny - Tam u nebeskych bran
TTITLE1=Petr Novak - Nahrobni kamen
TTITLE2=Karel Zich - Alenka v risi divu(Konopiste 03 live)
TTITLE3=Judita Cerovska - Rekni, kde ty kytky jsou
TTITLE4=Turbo - Hrac
TTITLE5=Jiri Schelinger - Holubi dum
TTITLE6=Zuzana Navarova - Cert vi proc
TTITLE7=Jiri Grossmann - Jako kote si prist
TTITLE8=Olympic - Bon soir mademoiselle Paris
TTITLE9=Valerie Cizmarova - Leta leti
TTITLE10=Karel Cernoch-Jiri Wimmer - Ve dvou se to lepe tahne
TTITLE11=Petr Kalandra - Nebeska brana
TTITLE12=Jana Robova - Ma me rad
TTITLE13=Milan Chladil - Krasne je zit
TTITLE14=Ladislav Vodicka - Ridic ma tvrdy chleb
TTITLE15=Eva Olmerova - Cekej tise
TTITLE16=Karel Hala - Dej mi par okovu
TTITLE17=Stanislav Prochazka ml. - Pisen posledni
TTITLE18=Tri sestry - Pumpa
EXTD=
EXTT0=
EXTT1=
EXTT2=
EXTT3=
EXTT4=
EXTT5=
EXTT6=
EXTT7=
EXTT8=
EXTT9=
EXTT10=
EXTT11=
EXTT12=
EXTT13=
EXTT14=
EXTT15=
EXTT16=
EXTT17=
EXTT18=
PLAYORDER=
